# xmcd
#
# Track frame offsets:
#	150
#	12492
#	22890
#	32712
#	44457
#	57472
#	68145
#	82090
#	98907
#	112972
#	126380
#	136905
#	146935
#	158880
#	171877
#	183790
#	194085
#	205890
#	216645
#	229900
#	240845
#	253060
#	263505
#	271757
#	281840
#	292890
#	302727
#	313172
#	324130
#	335980
#	344695
#
# Disc length: 4731 seconds
#
# Revision: 1
# Processed by: cddbd v1.5.2PL0 Copyright (c) Steve Scherf et al.
# Submitted via: EasyCDDAExtractor 16.0.0.1
#
DISCID=e112791f
DTITLE=Billy Walker - Cross The Brazos At Waco Vol 5
DYEAR=1993
DGENRE=Country
TTITLE0=Just Call Me Lonesome (From Now On))
TTITLE1=Let's Think About Livin'
TTITLE2=Alone With You
TTITLE3=They'll Never Take Her Love From Me
TTITLE4=I Take The Chance
TTITLE5=Guess Things Happen That Way
TTITLE6=(Remember Me) I'm The One Who Loves You
TTITLE7=Molly Darling
TTITLE8=Rockin' Alone (In An Old Rockin' Chair)
TTITLE9=Gonna Find Me A Bluebird
TTITLE10=There Stands The Glass
TTITLE11=Jambalaya
TTITLE12=Charlie's Shoes
TTITLE13=Funny How Time Slips Away
TTITLE14=Joey's Back In Town
TTITLE15=Charlie's Shoes
TTITLE16=Wild Colonial Boy
TTITLE17=I Know I'm Lying
TTITLE18=The Next Voice You Hear
TTITLE19=Willie The Weeper
TTITLE20=It's Me Not Them
TTITLE21=Lovely Hula Hands
TTITLE22=Beggin' For Trouble
TTITLE23=Plaything
TTITLE24=I've Got A New Heartache
TTITLE25=Give Back My Heart
TTITLE26=Ancient History
TTITLE27=Thank You For Calling
TTITLE28=The Man Who Had Everything
TTITLE29=These Arms Of Mine
TTITLE30=Throw Me Out
EXTD=
EXTT0=
EXTT1=
EXTT2=
EXTT3=
EXTT4=
EXTT5=
EXTT6=
EXTT7=
EXTT8=
EXTT9=
EXTT10=
EXTT11=
EXTT12=
EXTT13=
EXTT14=
EXTT15=
EXTT16=
EXTT17=
EXTT18=
EXTT19=
EXTT20=
EXTT21=
EXTT22=
EXTT23=
EXTT24=
EXTT25=
EXTT26=
EXTT27=
EXTT28=
EXTT29=
EXTT30=
PLAYORDER=
